

<svg version="1.1" xmlns="http://www.w3.org/2000/svg" xmlns:xlink="http://www.w3.org/1999/xlink" viewBox="0 0 400 115" enable-background="new 0 0 400 115" xml:space="preserve" width="400" height="115">
<path fill="#ccc" opacity="1.000000" stroke="none" width="40"  
	d="
M14.170896,84.664909 
	C13.888309,82.901512 13.294081,80.782257 14.041986,80.067627 
	C14.937829,79.211632 17.026592,79.225021 18.516472,79.437813 
	C23.910528,80.208237 29.243999,81.485298 34.654793,82.017883 
	C37.015285,82.250229 39.968792,81.790161 41.816631,80.472054 
	C43.864758,79.011055 45.990955,76.280579 46.147671,73.971542 
	C46.279427,72.030258 44.052406,69.233360 42.115078,68.018158 
	C39.525208,66.393646 36.203835,65.939201 33.201317,64.967682 
	C29.565525,63.791256 25.885315,62.730476 22.313301,61.383675 
	C17.027472,59.390697 13.763790,55.603554 13.467437,49.828941 
	C13.171462,44.061737 15.391960,39.176533 20.437759,36.341042 
	C29.874403,31.038120 39.710899,32.286972 49.378101,35.803864 
	C50.356884,36.159935 50.646980,38.409061 51.256676,39.779686 
	C49.768208,40.422066 48.235600,41.691334 46.799480,41.590221 
	C42.349949,41.276932 37.948833,40.088451 33.505707,39.941471 
	C30.794476,39.851780 27.616348,40.412720 25.428850,41.860970 
	C23.371990,43.222736 21.307379,46.072182 21.171036,48.380764 
	C21.053110,50.377480 23.224415,53.120018 25.135309,54.465767 
	C27.343781,56.021091 30.359171,56.459511 33.052803,57.290146 
	C36.865154,58.465748 40.786644,59.335632 44.511597,60.735142 
	C50.116093,62.840820 53.595360,66.851212 53.817783,73.069115 
	C54.045055,79.422752 51.002487,84.075378 45.359402,86.585762 
	C34.867737,91.253067 24.555487,89.275490 14.170896,84.664909 
z"/>
<path fill="#ccc" opacity="1.000000" stroke="none" 
	d="
M324.933777,87.336212 
	C314.024017,82.569710 312.394043,69.337029 315.415527,59.926201 
	C318.174652,51.332489 325.835571,46.710697 335.352966,47.750404 
	C344.773865,48.779572 351.931671,57.397705 351.421082,66.837685 
	C351.216919,70.612778 348.879639,70.981003 345.973328,71.003769 
	C338.159912,71.064972 330.346893,71.183250 322.533966,71.293221 
	C322.418335,71.294846 322.305298,71.481041 322.191040,71.581085 
	C322.655457,77.615440 325.946350,81.537651 332.067169,81.882339 
	C336.093384,82.109077 340.185974,80.735970 344.274109,80.474167 
	C346.109375,80.356644 348.006470,81.205460 349.875519,81.615768 
	C348.800812,83.228256 348.094299,85.547066 346.588257,86.332031 
	C339.755676,89.893318 332.546570,89.933838 324.933777,87.336212 
M342.104431,58.573151 
	C338.550842,54.195915 333.999329,52.764835 328.753723,54.683647 
	C324.334045,56.300354 321.860535,59.602814 321.942200,64.685532 
	C329.343567,64.685532 336.550507,64.685532 344.406708,64.685532 
	C343.677307,62.545738 343.109406,60.879589 342.104431,58.573151 
z"/>
<path fill="#ccc" opacity="1.000000" stroke="none" 
	d="
M127.249352,86.989540 
	C124.916801,82.934456 121.683746,79.246964 121.156052,75.206177 
	C120.194534,67.843391 120.612038,60.259689 120.988297,52.795074 
	C121.070435,51.165565 123.396439,49.649158 124.689041,48.080666 
	C125.825523,49.640209 127.850937,51.149216 127.942978,52.768139 
	C128.320068,59.400707 128.033737,66.067902 128.133377,72.720230 
	C128.230530,79.207664 130.886322,82.182800 136.413239,82.296677 
	C142.716095,82.426529 149.112061,77.484985 149.200684,72.249405 
	C149.307663,65.930031 148.985275,59.590954 149.402618,53.297131 
	C149.522079,51.495914 151.326538,48.614182 152.767105,48.334709 
	C156.021149,47.703426 156.666000,50.598125 156.671921,53.294640 
	C156.693069,62.942566 156.877747,72.597488 156.535492,82.233246 
	C156.458023,84.414207 154.507858,86.528656 153.419693,88.673721 
	C151.652023,87.322601 149.884354,85.971489 147.602936,84.227692 
	C142.235764,88.447876 135.482941,91.416191 127.249352,86.989540 
z"/>
<path fill="#ccc" opacity="1.000000" stroke="none" 
	d="
M275.681091,54.423878 
	C275.681610,64.020576 275.691406,73.165932 275.675476,82.311249 
	C275.670807,84.987000 275.899902,88.388634 272.356415,88.429794 
	C270.613525,88.450050 268.840912,85.913261 266.733673,84.260635 
	C264.853577,85.269051 262.127533,87.244690 259.081573,88.270035 
	C249.383804,91.534584 240.533218,85.668571 239.994064,75.504852 
	C239.589432,67.876785 239.664383,60.204475 239.993195,52.571999 
	C240.059799,51.026112 242.220901,49.570454 243.416397,48.073196 
	C244.649628,49.545475 246.854340,50.958939 246.947662,52.500244 
	C247.348938,59.127468 247.068817,65.793022 247.153824,72.443130 
	C247.240463,79.222359 249.947800,82.287605 255.650955,82.303650 
	C262.209137,82.322098 268.160156,77.252304 268.202759,71.546883 
	C268.246246,65.727417 268.232910,59.907402 268.220154,54.087681 
	C268.214050,51.305664 268.300751,48.273689 271.927765,48.190365 
	C275.700012,48.103710 275.617554,51.253860 275.681091,54.423878 
z"/>
<path fill="#ccc" opacity="1.000000" stroke="none" 
	d="
M200.806702,52.195900 
	C202.210724,56.561398 200.408951,57.754074 196.668930,56.817024 
	C195.392960,56.497341 194.242661,55.704704 192.980423,55.296932 
	C186.693130,53.265789 179.586273,55.224510 176.233597,59.854805 
	C172.964172,64.370117 172.925812,72.364059 176.152039,76.858055 
	C179.504364,81.527702 186.529694,83.483589 192.878525,81.483147 
	C193.826553,81.184433 194.742310,80.399689 195.649597,80.435310 
	C197.524124,80.508919 199.382874,80.983856 201.248123,81.293716 
	C200.304688,82.975235 199.782379,85.330391 198.348221,86.226974 
	C190.168762,91.340446 177.967865,89.568161 171.690109,82.692535 
	C165.282471,75.674660 164.468338,63.810184 169.877701,56.279678 
	C175.777176,48.066853 186.993484,45.249664 196.751297,49.598217 
	C198.099213,50.198917 199.296387,51.137894 200.806702,52.195900 
z"/>
<path fill="#ccc" opacity="1.000000" stroke="none" 
	d="
M220.047592,65.051895 
	C220.035080,69.204063 219.979355,72.865486 220.024170,76.525673 
	C220.088684,81.794350 221.495651,83.079582 226.667282,82.482567 
	C228.980255,82.215553 231.945068,81.249184 232.128510,84.552124 
	C232.201111,85.859573 229.476929,88.110802 227.665482,88.601814 
	C218.436050,91.103554 212.830338,86.625130 212.718964,76.968163 
	C212.636963,69.858162 212.702866,62.746449 212.702866,55.635502 
	C212.266296,55.906147 211.829742,56.176796 211.393173,56.447441 
	C209.535385,54.858631 207.677597,53.269825 205.819809,51.681019 
	C207.734695,50.293934 209.649582,48.906853 211.564468,47.519768 
	C213.932785,45.571995 210.559280,39.680969 216.499344,39.845791 
	C221.963242,39.997398 219.075638,45.329880 220.742508,48.819988 
	C223.005310,48.819988 225.688080,48.456676 228.193741,48.965500 
	C229.549545,49.240826 230.603104,51.004539 231.793015,52.096802 
	C230.645416,53.079617 229.613281,54.668995 228.325287,54.914177 
	C225.926056,55.370892 223.377914,55.045269 220.049301,55.045269 
	C220.049301,58.406651 220.049301,61.483624 220.047592,65.051895 
z"/>
<path fill="#ccc" opacity="1.000000" stroke="none" 
	d="
M59.219723,48.959457 
	C61.779373,48.747650 64.101067,49.054295 63.828224,45.595314 
	C63.618713,42.939262 63.455379,39.749657 67.374161,39.764801 
	C71.620667,39.781204 70.997772,43.233025 71.134834,46.006214 
	C71.167374,46.664677 71.258942,47.320221 71.402756,48.786739 
	C73.654022,48.786739 76.013016,48.375519 78.129318,48.915485 
	C79.855087,49.355804 81.290657,50.933437 82.854904,52.006790 
	C81.228676,53.034721 79.718948,54.479431 77.944069,54.975605 
	C76.098747,55.491455 73.997169,55.090580 71.279305,55.090580 
	C71.279305,63.411346 70.976585,71.496880 71.418770,79.541473 
	C71.613037,83.075600 75.083099,82.400726 77.758247,82.604027 
	C79.713478,82.752609 81.595787,83.860970 83.510597,84.541504 
	C81.927879,85.943573 80.555420,88.121292 78.726982,88.616966 
	C69.525131,91.111481 63.890667,86.591881 63.794617,76.963066 
	C63.723530,69.836754 63.780643,62.709156 63.780643,55.705303 
	C56.144135,54.246086 55.403896,53.144180 59.219723,48.959457 
z"/>
<path fill="#ccc" opacity="1.000000" stroke="none" 
	d="
M98.822365,61.759975 
	C98.693604,69.322128 98.894913,76.475685 98.482330,83.593658 
	C98.379799,85.362541 96.511787,88.214417 95.071243,88.479210 
	C91.849739,89.071365 91.189461,86.236900 91.189362,83.512703 
	C91.189026,73.880486 91.000923,64.241913 91.328293,54.620865 
	C91.402878,52.429100 93.258720,50.297947 94.294716,48.138897 
	C96.149117,49.522442 98.003525,50.905991 99.719635,52.186359 
	C102.537949,50.899540 105.962990,48.892818 109.660316,47.889320 
	C110.942978,47.541187 112.900604,49.679859 114.549942,50.682697 
	C113.213501,52.037640 112.001610,54.380085 110.517876,54.567219 
	C105.545845,55.194317 101.669205,57.153282 98.822365,61.759975 
z"/>
<path fill="#ccc" opacity="1.000000" stroke="none" 
	d="
M287.779480,63.012573 
	C287.780060,59.690048 287.384216,56.788029 287.909637,54.063705 
	C288.312714,51.973995 289.877838,50.108418 290.926147,48.143162 
	C292.658752,49.418575 294.391388,50.693989 296.514557,52.256908 
	C298.520844,51.205872 301.528412,49.014156 304.880737,48.130886 
	C306.587708,47.681145 310.198639,49.120197 310.702271,50.516079 
	C311.867004,53.744171 308.946564,54.400772 306.266632,54.790512 
	C297.953156,55.999535 295.087189,59.321358 295.082977,67.498955 
	C295.080139,72.983856 295.373932,78.495247 294.891785,83.937805 
	C294.743744,85.609039 292.469330,87.091904 291.168610,88.661026 
	C290.040833,87.091782 288.027649,85.570488 287.939575,83.944931 
	C287.571564,77.150177 287.781464,70.324120 287.779480,63.012573 
z"/>
</svg>